HIERARCHY
ROOT root
{
	OFFSET 0.000000 0.000000 0.000000
	CHANNELS 6 Xposition Yposition Zposition Zrotation Yrotation Xrotation
	JOINT lhip
	{
		OFFSET 0.058581 -0.082280 -0.017664
		CHANNELS 3 Zrotation Yrotation Xrotation
		JOINT lknee
		{
			OFFSET 0.043451 -0.386469 0.008037
			CHANNELS 3 Zrotation Yrotation Xrotation
			JOINT lankle
			{
				OFFSET -0.014790 -0.426874 -0.037428
				CHANNELS 3 Zrotation Yrotation Xrotation
				JOINT ltoe
				{
					OFFSET 0.041054 -0.060286 0.122042
					CHANNELS 3 Zrotation Yrotation Xrotation
					End Site
					{
						OFFSET 0.000000 0.000000 0.000000
					}
				}
			}
		}
	}
	JOINT rhip
	{
		OFFSET -0.060310 -0.090513 -0.013543
		CHANNELS 3 Zrotation Yrotation Xrotation
		JOINT rknee
		{
			OFFSET -0.043257 -0.383688 -0.004843
			CHANNELS 3 Zrotation Yrotation Xrotation
			JOINT rankle
			{
				OFFSET 0.019056 -0.420046 -0.034562
				CHANNELS 3 Zrotation Yrotation Xrotation
				JOINT rtoe
				{
					OFFSET -0.034840 -0.062106 0.130323
					CHANNELS 3 Zrotation Yrotation Xrotation
					End Site
					{
						OFFSET 0.000000 0.000000 0.000000
					}
				}
			}
		}
	}
	JOINT lowerback
	{
		OFFSET 0.004439 0.124404 -0.038385
		CHANNELS 3 Zrotation Yrotation Xrotation
		JOINT upperback
		{
			OFFSET 0.004488 0.137956 0.026820
			CHANNELS 3 Zrotation Yrotation Xrotation
			JOINT chest
			{
				OFFSET -0.002265 0.056032 0.002855
				CHANNELS 3 Zrotation Yrotation Xrotation
				JOINT lowerneck
				{
					OFFSET -0.013390 0.211636 -0.033468
					CHANNELS 3 Zrotation Yrotation Xrotation
					JOINT upperneck
					{
						OFFSET 0.010113 0.088937 0.050410
						CHANNELS 3 Zrotation Yrotation Xrotation
						End Site
						{
							OFFSET 0.000000 0.000000 0.000000
						}
					}
				}
				JOINT lclavicle
				{
					OFFSET 0.071702 0.114000 -0.018898
					CHANNELS 3 Zrotation Yrotation Xrotation
					JOINT lshoulder
					{
						OFFSET 0.122921 0.045205 -0.019046
						CHANNELS 3 Zrotation Yrotation Xrotation
						JOINT lelbow
						{
							OFFSET 0.255332 -0.015649 -0.022946
							CHANNELS 3 Zrotation Yrotation Xrotation
							JOINT lwrist
							{
								OFFSET 0.265709 0.012698 -0.007375
								CHANNELS 3 Zrotation Yrotation Xrotation
								End Site
								{
									OFFSET 0.000000 0.000000 0.000000
								}
							}
						}
					}
				}
				JOINT rclavicle
				{
					OFFSET -0.082954 0.112472 -0.023707
					CHANNELS 3 Zrotation Yrotation Xrotation
					JOINT rshoulder
					{
						OFFSET -0.113228 0.046853 -0.008472
						CHANNELS 3 Zrotation Yrotation Xrotation
						JOINT relbow
						{
							OFFSET -0.260127 -0.014369 -0.031269
							CHANNELS 3 Zrotation Yrotation Xrotation
							JOINT rwrist
							{
								OFFSET -0.269108 0.006794 -0.006027
								CHANNELS 3 Zrotation Yrotation Xrotation
								End Site
								{
									OFFSET 0.000000 0.000000 0.000000
								}
							}
						}
					}
				}
			}
		}
	}
}
MOTION
Frames: 6
Frame Time: 0.033333
1.165724 0.175200 0.991143 -84.973022 2.878162 86.004200 0.597747 -0.364333 5.951742 -3.741218 -15.626073 1.507390 5.153812 7.704682 -13.790082 0.000000 -0.000000 0.000000 3.492191 -2.744610 5.036298 5.174713 2.254992 4.417317 2.273033 -3.383136 -9.601598 0.000000 -0.000000 0.000000 -1.025903 2.995930 6.247123 2.248236 -1.457191 4.275360 0.587947 -1.770991 5.290263 3.420064 -2.222006 13.867220 1.077446 -5.908237 15.066950 -26.290608 4.846741 3.435677 -62.611411 -8.129500 9.061352 9.140298 -20.511999 5.791538 -5.303142 0.238584 -7.000963 24.402346 -3.168960 1.430748 63.028202 2.721636 10.930451 -12.931438 15.473145 -1.368094 8.047890 -3.704323 -6.309646 
1.166793 0.175073 0.991334 -85.384126 2.967325 85.960799 0.699244 -0.238955 6.027301 -3.760019 -15.382856 1.339583 5.077519 7.803202 -13.804747 0.000000 -0.000000 0.000000 3.570833 -2.226871 5.377683 5.167763 2.181058 3.724707 2.419168 -3.418346 -9.198668 0.000000 -0.000000 0.000000 -1.006248 2.784964 6.605782 2.265288 -1.633420 4.361616 0.498259 -2.003557 5.433094 3.526766 -2.668673 14.466500 0.980327 -6.172730 15.285522 -26.301434 4.971553 3.561617 -62.480327 -8.302970 8.973465 9.320376 -20.645528 5.489773 -5.673753 -0.014879 -7.303582 24.273334 -3.405981 1.279616 63.218364 2.608980 11.091281 -12.845557 15.915290 -1.389414 7.870764 -3.618279 -6.509265 
1.167686 0.174873 0.991272 -85.555084 3.020398 86.115022 0.768034 -0.147468 5.809717 -3.819353 -15.400668 1.331462 5.197168 7.803810 -13.705806 0.000000 -0.000000 0.000000 3.579200 -2.383292 5.225119 5.155387 2.490840 3.557205 2.482618 -3.347033 -8.975684 0.000000 -0.000000 0.000000 -1.102277 2.646695 6.720424 2.318232 -1.865712 4.396427 0.526524 -2.043848 5.456005 3.483855 -3.264213 14.932407 1.039451 -6.630056 15.503839 -26.247760 4.948280 3.677437 -62.441420 -8.491528 8.878500 9.491609 -20.655090 5.327566 -5.693359 -0.075584 -7.559480 24.121017 -3.365296 1.466119 63.212179 2.527922 11.079160 -12.884089 15.858226 -1.199910 8.279596 -3.683137 -6.537821 
1.168533 0.174503 0.991127 -85.517122 3.134389 86.100625 0.869581 0.030599 5.647658 -3.847203 -15.414357 1.533246 5.139852 7.609372 -13.708931 0.000000 -0.000000 0.000000 3.658018 -2.740622 5.071667 5.108235 2.636401 3.704464 2.392125 -3.174750 -9.016822 0.000000 -0.000000 0.000000 -1.084005 2.479499 7.060338 2.401120 -2.075007 4.451421 0.521744 -2.175243 5.428976 3.594532 -3.761676 15.525828 1.113193 -6.965068 15.769746 -26.306530 4.757575 3.648192 -62.173173 -8.850954 8.802179 9.497452 -20.515681 5.037195 -5.189752 0.306377 -6.871213 24.067874 -3.469996 1.467753 63.061998 2.420591 10.707886 -12.999239 15.850841 -1.946162 8.056073 -3.312883 -6.836242 
1.169407 0.173369 0.991453 -85.426838 3.158016 85.957138 0.822523 0.170982 5.720327 -3.851554 -15.490733 1.593038 5.036072 7.433437 -13.739379 0.000000 -0.000000 0.000000 3.525345 -2.975371 5.098829 5.195240 2.459461 3.830757 2.458779 -2.874775 -8.978372 0.000000 -0.000000 0.000000 -1.052654 2.345406 7.595214 2.413924 -2.305138 4.534850 0.579518 -2.287043 5.291811 3.467727 -4.095595 16.089894 1.100887 -6.982793 15.840531 -26.071464 4.620921 3.863989 -62.277267 -9.117071 8.667796 9.675779 -21.292205 4.688021 -5.277398 0.100514 -7.569568 23.840536 -3.369256 1.547442 62.919612 2.273528 10.513983 -12.852961 16.062762 -1.808598 8.256832 -2.610278 -6.734848 
1.170101 0.172428 0.991501 -85.398725 3.264083 85.959250 0.903750 0.185144 5.593656 -3.947173 -15.467853 1.703868 5.059503 7.421376 -13.733593 0.000000 -0.000000 0.000000 3.613110 -2.771742 4.986132 5.172585 2.327495 3.945024 2.429726 -2.903302 -9.019701 0.000000 -0.000000 0.000000 -0.928751 2.116984 7.816331 2.472841 -2.426177 4.550252 0.527873 -2.504945 5.325645 3.394126 -4.489026 16.503272 1.011626 -7.276995 15.988500 -26.030596 4.613190 4.146898 -62.053702 -9.347260 8.598269 9.984396 -22.295009 4.579550 -5.137860 -0.391759 -8.053116 23.725311 -3.818581 1.474862 62.757025 2.550085 10.508449 -12.524297 16.372691 -1.179919 8.047393 -2.800167 -6.329473 
